<svg width="26" height="26" viewBox="0 0 26 26" fill="none" xmlns="http://www.w3.org/2000/svg">
<path fill-rule="evenodd" clip-rule="evenodd" d="M13 25.8C16.3947 25.8 19.6505 24.4514 22.0509 22.051C24.4514 19.6505 25.7999 16.3948 25.7999 13C25.7999 9.60523 24.4514 6.3495 22.0509 3.94903C19.6505 1.54856 16.3947 0.199997 13 0.199997C9.60518 0.199997 6.34945 1.54856 3.94898 3.94903C1.54852 6.3495 0.199951 9.60523 0.199951 13C0.199951 16.3948 1.54852 19.6505 3.94898 22.051C6.34945 24.4514 9.60518 25.8 13 25.8ZM18.9312 10.9312C19.2226 10.6294 19.3839 10.2253 19.3802 9.80575C19.3766 9.38624 19.2083 8.98494 18.9117 8.68829C18.615 8.39163 18.2137 8.22336 17.7942 8.21972C17.3747 8.21607 16.9705 8.37734 16.6688 8.6688L11.4 13.9376L9.33115 11.8688C9.02939 11.5773 8.62522 11.4161 8.20571 11.4197C7.78619 11.4234 7.38489 11.5916 7.08824 11.8883C6.79159 12.1849 6.62332 12.5862 6.61967 13.0058C6.61603 13.4253 6.7773 13.8294 7.06875 14.1312L10.2688 17.3312C10.5688 17.6311 10.9757 17.7997 11.4 17.7997C11.8242 17.7997 12.2311 17.6311 12.5311 17.3312L18.9312 10.9312Z" fill="white"/>
</svg>
