<svg width="54" height="59" viewBox="0 0 54 59" fill="none" xmlns="http://www.w3.org/2000/svg">
<rect width="54" height="54" rx="5" fill="url(#paint0_linear_15_84)"/>
<path d="M39.3413 22.9844C38.6126 16.9375 34.0359 13.4602 27.9762 13.4602C21.06 13.4602 15.7802 18.3438 15.7802 26.9091C15.7802 35.4489 20.9705 40.358 27.9762 40.358C34.6879 40.358 38.7404 35.8963 39.3413 31.0767L33.7418 31.0511C33.2177 33.8509 31.0188 35.4616 28.0657 35.4616C24.0898 35.4616 21.3924 32.5085 21.3924 26.9091C21.3924 21.4631 24.0515 18.3565 28.104 18.3565C31.1339 18.3565 33.32 20.108 33.7418 22.9844H39.3413Z" fill="white"/>
<path d="M39.1726 29.2216C40.2635 29.2216 41.2095 28.3097 41.218 27.1761C41.2095 26.0597 40.2635 25.1477 39.1726 25.1477C38.0476 25.1477 37.1186 26.0597 37.1271 27.1761C37.1186 28.3097 38.0476 29.2216 39.1726 29.2216ZM46.821 29.2216C47.9119 29.2216 48.858 28.3097 48.8665 27.1761C48.858 26.0597 47.9119 25.1477 46.821 25.1477C45.696 25.1477 44.767 26.0597 44.7756 27.1761C44.767 28.3097 45.696 29.2216 46.821 29.2216Z" fill="white"/>
<defs>
<linearGradient id="paint0_linear_15_84" x1="4.99835" y1="11.0625" x2="73.2545" y2="35.6832" gradientUnits="userSpaceOnUse">
<stop offset="0.0417277" stop-color="#FF814A"/>
<stop offset="0.625" stop-color="#FFA825"/>
<stop offset="1" stop-color="#F1F37C"/>
</linearGradient>
</defs>
</svg>
